HIERARCHY
ROOT Hips
{
 OFFSET 0.000000 0.000000 0.000000
 CHANNELS 6 Xposition Yposition Zposition Yrotation Xrotation Zrotation
 JOINT Chest
 {
  OFFSET 0.000000 9.588913 -0.003946
  CHANNELS 3 Yrotation Xrotation Zrotation
  JOINT Chest2
  {
   OFFSET 0.000000 9.541882 0.008053
   CHANNELS 3 Yrotation Xrotation Zrotation
   JOINT Chest3
   {
    OFFSET 0.000000 9.501360 0.000000
    CHANNELS 3 Yrotation Xrotation Zrotation
    JOINT Chest4
    {
     OFFSET 0.000000 9.491660 0.000000
     CHANNELS 3 Yrotation Xrotation Zrotation
     JOINT Neck
     {
      OFFSET 0.000000 14.331917 0.000000
      CHANNELS 3 Yrotation Xrotation Zrotation
      JOINT Head
      {
       OFFSET 0.000000 8.884799 0.017034
       CHANNELS 3 Yrotation Xrotation Zrotation
       End Site
       {
        OFFSET 0.000000 16.896195 0.008993
       }
      }
     }
     JOINT RightCollar
     {
      OFFSET -2.923010 9.499495 0.000000
      CHANNELS 3 Yrotation Xrotation Zrotation
      JOINT RightShoulder
      {
       OFFSET -13.795216 0.000000 0.000000
       CHANNELS 3 Yrotation Xrotation Zrotation
       JOINT RightElbow
       {
        OFFSET -30.272209 0.000000 0.000000
        CHANNELS 3 Yrotation Xrotation Zrotation
        JOINT RightWrist
        {
         OFFSET -24.478199 0.000000 0.000000
         CHANNELS 3 Yrotation Xrotation Zrotation
         End Site
         {
          OFFSET -18.090752 0.000000 0.000000
         }
        }
       }
      }
     }
     JOINT LeftCollar
     {
      OFFSET 2.923010 9.499495 0.000000
      CHANNELS 3 Yrotation Xrotation Zrotation
      JOINT LeftShoulder
      {
       OFFSET 13.795216 0.000000 0.000000
       CHANNELS 3 Yrotation Xrotation Zrotation
       JOINT LeftElbow
       {
        OFFSET 30.272209 0.000000 0.000000
        CHANNELS 3 Yrotation Xrotation Zrotation
        JOINT LeftWrist
        {
         OFFSET 24.478199 0.000000 0.000000
         CHANNELS 3 Yrotation Xrotation Zrotation
         End Site
         {
          OFFSET 18.090752 0.000000 0.000000
         }
        }
       }
      }
     }
    }
   }
  }
 }
 JOINT RightHip
 {
  OFFSET -7.826875 0.019532 0.001973
  CHANNELS 3 Yrotation Xrotation Zrotation
  JOINT RightKnee
  {
   OFFSET 0.000000 -40.546152 -0.001885
   CHANNELS 3 Yrotation Xrotation Zrotation
   JOINT RightAnkle
   {
    OFFSET 0.000000 -39.417092 -0.003189
    CHANNELS 3 Yrotation Xrotation Zrotation
    JOINT RightToe
    {
     OFFSET 0.000000 -7.579396 17.243563
     CHANNELS 3 Yrotation Xrotation Zrotation
     End Site
     {
      OFFSET 0.000000 -1.500329 6.694466
     }
    }
   }
  }
 }
 JOINT LeftHip
 {
  OFFSET 7.826875 0.019532 0.001973
  CHANNELS 3 Yrotation Xrotation Zrotation
  JOINT LeftKnee
  {
   OFFSET 0.000000 -40.546152 -0.001885
   CHANNELS 3 Yrotation Xrotation Zrotation
   JOINT LeftAnkle
   {
    OFFSET 0.000000 -39.417092 -0.003189
    CHANNELS 3 Yrotation Xrotation Zrotation
    JOINT LeftToe
    {
     OFFSET 0.000000 -7.579396 17.243563
     CHANNELS 3 Yrotation Xrotation Zrotation
     End Site
     {
      OFFSET 0.000000 -1.500329 6.694466
     }
    }
   }
  }
 }
}
MOTION
Frames: 11
Frame Time: 0.008333
13.466106 89.032107 0.000933 -169.604167 -4.599395 1.070430 3.094166 -3.920966 -1.625029 1.750327 -2.254052 -0.960958 2.194225 -2.812870 -1.212165 1.750328 -2.254052 -0.960957 8.213698 26.147854 0.933456 8.901541 3.223689 -0.839962 0.519546 3.671428 2.007271 -28.786943 -9.554929 83.720442 99.314681 -8.610976 23.874928 24.283879 -5.626155 -15.266670 -5.660173 2.692897 5.728186 22.988224 -16.254920 -80.577180 -83.145911 -27.490067 -49.063985 -23.090442 -1.732276 5.487608 -3.643210 6.788494 0.718794 3.503803 4.363465 -0.056456 2.628603 -7.167982 -1.454933 -0.040007 0.195286 0.019516 4.765571 4.854323 -1.610212 -6.191356 6.625963 -0.465950 -4.396289 -7.094352 1.214234 0.041300 -0.041229 0.016853
13.439940 89.041998 0.096148 -169.658595 -4.603613 1.058021 3.105584 -3.867028 -1.587389 1.757545 -2.222761 -0.940288 2.203030 -2.773838 -1.186211 1.757546 -2.222761 -0.940288 8.314465 26.183028 0.938979 9.016890 3.278296 -0.856178 0.363565 3.868527 1.881665 -28.585607 -8.259425 84.168462 98.575478 -7.967461 23.961302 24.394904 -5.500148 -14.979319 -5.678529 2.863779 5.598881 23.021209 -14.786581 -80.546761 -82.348669 -26.984608 -49.497322 -22.791734 -1.647062 5.257423 -3.608972 6.727816 0.697214 3.512564 4.357894 -0.047667 2.638311 -7.122307 -1.425620 -0.040918 0.189958 0.015338 4.791034 4.815442 -1.622436 -6.182580 6.602384 -0.477323 -4.385137 -7.035863 1.232489 0.039914 -0.048373 0.024016
13.415371 89.051546 0.189961 -169.712675 -4.607223 1.043180 3.114178 -3.809929 -1.547904 1.763204 -2.189765 -0.917342 2.209872 -2.732691 -1.157392 1.763205 -2.189765 -0.917342 8.402714 26.210675 0.936706 9.119624 3.322480 -0.878283 0.193170 4.069990 1.737215 -28.402091 -7.010752 84.677180 97.785400 -7.274495 24.069871 24.528602 -5.394921 -14.709547 -5.699898 3.029602 5.464631 23.093582 -13.378491 -80.524723 -81.669179 -26.405409 -49.740680 -22.398934 -1.438958 4.917869 -3.583123 6.670953 0.677598 3.522349 4.345641 -0.037812 2.652729 -7.074759 -1.398301 -0.041260 0.185708 0.012058 4.813391 4.779918 -1.632950 -6.171314 6.572063 -0.484977 -4.372213 -6.976482 1.248746 0.038029 -0.053614 0.028636
13.391981 89.060599 0.282567 -169.765513 -4.610570 1.029449 3.119169 -3.749700 -1.507651 1.766922 -2.155111 -0.893451 2.214282 -2.689482 -1.127373 1.766923 -2.155111 -0.893451 8.481078 26.229278 0.922737 9.213612 3.354682 -0.911227 0.005971 4.280192 1.577264 -28.210183 -5.829394 85.209918 96.914304 -6.591925 24.198952 24.700283 -5.314774 -14.489978 -5.710042 3.172049 5.338506 23.181444 -11.990367 -80.526682 -81.157134 -25.729907 -49.753369 -21.941937 -1.130058 4.491799 -3.564975 6.617783 0.656293 3.533008 4.327292 -0.026895 2.670442 -7.027094 -1.372495 -0.040721 0.183241 0.009459 4.829107 4.748534 -1.644982 -6.158842 6.533594 -0.489520 -4.357797 -6.914045 1.263258 0.036253 -0.057703 0.031067
13.370039 89.069092 0.374290 -169.819788 -4.612475 1.017146 3.120547 -3.687352 -1.466082 1.768582 -2.119054 -0.869344 2.216117 -2.644525 -1.097063 1.768583 -2.119054 -0.869343 8.552966 26.237911 0.895686 9.303056 3.374121 -0.957338 -0.201120 4.504537 1.402350 -27.987875 -4.727186 85.742890 95.952622 -5.958303 24.355447 24.914028 -5.254329 -14.340903 -5.692960 3.284043 5.233639 23.286084 -10.592862 -80.578780 -80.822324 -24.936223 -49.562869 -21.465541 -0.758620 4.048626 -3.548058 6.567409 0.632565 3.545463 4.300797 -0.012043 2.687249 -6.976596 -1.349139 -0.039247 0.181742 0.007163 4.840823 4.719084 -1.657452 -6.144198 6.488851 -0.494576 -4.340255 -6.848910 1.276996 0.035248 -0.060923 0.032709
13.350135 89.077074 0.465449 -169.879088 -4.611199 1.005014 3.117959 -3.624692 -1.423744 1.768012 -2.082477 -0.845472 2.215170 -2.598924 -1.067033 1.768013 -2.082477 -0.845472 8.622498 26.237760 0.858095 9.392122 3.382656 -1.014725 -0.430440 4.754420 1.212338 -27.728079 -3.707179 86.273477 94.904489 -5.381266 24.544853 25.175385 -5.202664 -14.242510 -5.640305 3.366646 5.158765 23.435513 -9.183782 -80.709335 -80.593897 -24.004349 -49.261441 -21.040807 -0.363743 3.664974 -3.524255 6.515374 0.609668 3.556893 4.270310 0.005811 2.701130 -6.922788 -1.327412 -0.037356 0.179924 0.004569 4.853801 4.689691 -1.668413 -6.124738 6.438249 -0.500270 -4.322984 -6.781851 1.290196 0.035099 -0.062977 0.033696
13.332348 89.084722 0.556013 -169.945385 -4.607258 0.994406 3.112772 -3.562039 -1.383485 1.766033 -2.045916 -0.823150 2.212475 -2.553337 -1.038933 1.766034 -2.045916 -0.823150 8.692179 26.229945 0.814849 9.482565 3.381822 -1.078520 -0.681187 5.032593 1.016825 -27.437273 -2.768044 86.779479 93.779173 -4.863212 24.755985 25.482514 -5.153972 -14.157634 -5.556826 3.425146 5.119018 23.678452 -7.777097 -80.927808 -80.357129 -22.934766 -48.979506 -20.736301 -0.006766 3.380708 -3.491393 6.459298 0.589176 3.565676 4.241446 0.021480 2.712476 -6.867456 -1.304405 -0.036066 0.177333 0.001293 4.872154 4.661399 -1.678641 -6.102299 6.381177 -0.504807 -4.310871 -6.711933 1.301564 0.035120 -0.064802 0.034088
13.316854 89.092260 0.645742 -170.020660 -4.601769 0.985858 3.107559 -3.499232 -1.346022 1.764130 -2.009487 -0.802709 2.209890 -2.507906 -1.013186 1.764131 -2.009487 -0.802709 8.761671 26.216216 0.769425 9.573220 3.373684 -1.144777 -0.947597 5.321738 0.830384 -27.130114 -1.895041 87.224838 92.593274 -4.392214 24.972023 25.815567 -5.108916 -14.057299 -5.446911 3.472058 5.115619 23.991185 -6.365628 -81.209196 -80.041682 -21.779761 -48.778661 -20.588882 0.238846 3.196012 -3.450783 6.399362 0.569651 3.570856 4.215821 0.036371 2.725686 -6.809994 -1.281611 -0.035396 0.173399 -0.002266 4.898519 4.635433 -1.689049 -6.081541 6.318132 -0.506689 -4.300523 -6.638393 1.310160 0.035135 -0.067637 0.033826
13.304195 89.099857 0.734536 -170.106265 -4.594180 0.977730 3.104229 -3.436897 -1.309721 1.763407 -1.973210 -0.783298 2.208791 -2.462657 -0.988735 1.763408 -1.973210 -0.783298 8.829311 26.199958 0.724309 9.661675 3.362246 -1.210326 -1.216408 5.598576 0.659382 -26.829000 -1.069615 87.593133 91.364211 -3.935274 25.182603 26.152710 -5.064401 -13.925071 -5.314154 3.524255 5.141575 24.291120 -4.946194 -81.513969 -79.587318 -20.629429 -48.669768 -20.604260 0.339179 3.105787 -3.402177 6.335036 0.550032 3.573217 4.192777 0.055777 2.744430 -6.748333 -1.262911 -0.033928 0.167504 -0.005190 4.933948 4.610668 -1.698662 -6.064421 6.250518 -0.506464 -4.284478 -6.561506 1.317170 0.035388 -0.071863 0.032452
13.294484 89.107589 0.822583 -170.199646 -4.582416 0.970645 3.103324 -3.375295 -1.274700 1.763927 -1.937227 -0.764782 2.209255 -2.417768 -0.965411 1.763928 -1.937227 -0.764782 8.893176 26.183840 0.682073 9.745161 3.350563 -1.271846 -1.471944 5.849861 0.503053 -26.549412 -0.283797 87.900976 90.108195 -3.451996 25.383661 26.471182 -5.003537 -13.761064 -5.167386 3.592613 5.186393 24.582910 -3.561712 -81.811597 -78.884886 -19.561525 -48.740437 -20.749663 0.313895 3.104683 -3.348787 6.263746 0.530156 3.574841 4.173465 0.078320 2.768027 -6.683309 -1.247640 -0.031474 0.160144 -0.007429 4.977703 4.583603 -1.707435 -6.050264 6.180395 -0.507168 -4.262672 -6.480727 1.324654 0.035512 -0.077952 0.030124
13.287490 89.115463 0.909671 -170.299004 -4.566962 0.966484 3.105055 -3.314047 -1.240801 1.765490 -1.901658 -0.747069 2.211031 -2.373392 -0.943100 1.765491 -1.901658 -0.747070 8.951661 26.170306 0.643526 9.821690 3.341492 -1.328052 -1.702820 6.078150 0.360933 -26.306464 0.457995 88.174173 88.837873 -2.914135 25.581644 26.744809 -4.914984 -13.570396 -5.007337 3.686284 5.240825 24.882389 -2.261283 -82.086398 -77.872416 -18.608853 -49.032016 -20.974072 0.198674 3.160115 -3.295527 6.185607 0.508555 3.576430 4.159544 0.103137 2.795021 -6.617371 -1.234972 -0.029032 0.152396 -0.009683 5.028701 4.554349 -1.716550 -6.038867 6.108632 -0.509262 -4.239027 -6.395969 1.332221 0.035248 -0.085880 0.027417
